<mxfile host="app.diagrams.net" agent="Mozilla/5.0 (Windows NT 10.0; Win64; x64) AppleWebKit/537.36 (KHTML, like Gecko) Chrome/131.0.0.0 Safari/537.36" version="25.0.3">
  <diagram name="Page-1" id="APPzI7RoQxX75xqb2mlw">
    <mxGraphModel dx="3800" dy="2323" grid="1" gridSize="10" guides="1" tooltips="1" connect="1" arrows="1" fold="1" page="0" pageScale="1" pageWidth="1169" pageHeight="827" math="0" shadow="0">
      <root>
        <mxCell id="0" />
        <mxCell id="1" parent="0" />
        <mxCell id="qOsWm333N0dmwpUY4JiR-1" value="" style="shape=umlLifeline;perimeter=lifelinePerimeter;whiteSpace=wrap;html=1;container=1;dropTarget=0;collapsible=0;recursiveResize=0;outlineConnect=0;portConstraint=eastwest;newEdgeStyle={&quot;curved&quot;:0,&quot;rounded&quot;:0};participant=umlActor;flipH=0;" parent="1" vertex="1">
          <mxGeometry x="-308.38" y="-383" width="20" height="903" as="geometry" />
        </mxCell>
        <mxCell id="qOsWm333N0dmwpUY4JiR-17" value="" style="html=1;points=[[0,0,0,0,5],[0,1,0,0,-5],[1,0,0,0,5],[1,1,0,0,-5]];perimeter=orthogonalPerimeter;outlineConnect=0;targetShapes=umlLifeline;portConstraint=eastwest;newEdgeStyle={&quot;curved&quot;:0,&quot;rounded&quot;:0};" parent="qOsWm333N0dmwpUY4JiR-1" vertex="1">
          <mxGeometry x="5" y="50" width="10" height="840" as="geometry" />
        </mxCell>
        <mxCell id="qOsWm333N0dmwpUY4JiR-2" value="Website" style="shape=umlLifeline;perimeter=lifelinePerimeter;whiteSpace=wrap;html=1;container=1;dropTarget=0;collapsible=0;recursiveResize=0;outlineConnect=0;portConstraint=eastwest;newEdgeStyle={&quot;curved&quot;:0,&quot;rounded&quot;:0};" parent="1" vertex="1">
          <mxGeometry x="-148.38" y="-383" width="100" height="903" as="geometry" />
        </mxCell>
        <mxCell id="qOsWm333N0dmwpUY4JiR-6" value="" style="html=1;points=[[0,0,0,0,5],[0,1,0,0,-5],[1,0,0,0,5],[1,1,0,0,-5]];perimeter=orthogonalPerimeter;outlineConnect=0;targetShapes=umlLifeline;portConstraint=eastwest;newEdgeStyle={&quot;curved&quot;:0,&quot;rounded&quot;:0};" parent="qOsWm333N0dmwpUY4JiR-2" vertex="1">
          <mxGeometry x="45" y="70" width="10" height="40" as="geometry" />
        </mxCell>
        <mxCell id="qOsWm333N0dmwpUY4JiR-8" value="" style="html=1;points=[[0,0,0,0,5],[0,1,0,0,-5],[1,0,0,0,5],[1,1,0,0,-5]];perimeter=orthogonalPerimeter;outlineConnect=0;targetShapes=umlLifeline;portConstraint=eastwest;newEdgeStyle={&quot;curved&quot;:0,&quot;rounded&quot;:0};" parent="qOsWm333N0dmwpUY4JiR-2" vertex="1">
          <mxGeometry x="45.17" y="150" width="10" height="70" as="geometry" />
        </mxCell>
        <mxCell id="qOsWm333N0dmwpUY4JiR-11" value="" style="html=1;points=[[0,0,0,0,5],[0,1,0,0,-5],[1,0,0,0,5],[1,1,0,0,-5]];perimeter=orthogonalPerimeter;outlineConnect=0;targetShapes=umlLifeline;portConstraint=eastwest;newEdgeStyle={&quot;curved&quot;:0,&quot;rounded&quot;:0};" parent="qOsWm333N0dmwpUY4JiR-2" vertex="1">
          <mxGeometry x="45.17" y="290" width="10" height="30" as="geometry" />
        </mxCell>
        <mxCell id="Kvt9dq21il0mSc9CAYVP-6" value="" style="html=1;points=[[0,0,0,0,5],[0,1,0,0,-5],[1,0,0,0,5],[1,1,0,0,-5]];perimeter=orthogonalPerimeter;outlineConnect=0;targetShapes=umlLifeline;portConstraint=eastwest;newEdgeStyle={&quot;curved&quot;:0,&quot;rounded&quot;:0};" parent="qOsWm333N0dmwpUY4JiR-2" vertex="1">
          <mxGeometry x="45" y="390" width="10" height="280" as="geometry" />
        </mxCell>
        <mxCell id="qOsWm333N0dmwpUY4JiR-3" value="External website (e.g.Social media, games platform&lt;span style=&quot;background-color: initial;&quot;&gt;)&lt;/span&gt;" style="shape=umlLifeline;perimeter=lifelinePerimeter;whiteSpace=wrap;html=1;container=1;dropTarget=0;collapsible=0;recursiveResize=0;outlineConnect=0;portConstraint=eastwest;newEdgeStyle={&quot;curved&quot;:0,&quot;rounded&quot;:0};size=50;" parent="1" vertex="1">
          <mxGeometry x="51.62" y="-383" width="100" height="903" as="geometry" />
        </mxCell>
        <mxCell id="qOsWm333N0dmwpUY4JiR-15" value="" style="html=1;points=[[0,0,0,0,5],[0,1,0,0,-5],[1,0,0,0,5],[1,1,0,0,-5]];perimeter=orthogonalPerimeter;outlineConnect=0;targetShapes=umlLifeline;portConstraint=eastwest;newEdgeStyle={&quot;curved&quot;:0,&quot;rounded&quot;:0};" parent="qOsWm333N0dmwpUY4JiR-3" vertex="1">
          <mxGeometry x="45" y="300" width="10" height="50" as="geometry" />
        </mxCell>
        <mxCell id="Kvt9dq21il0mSc9CAYVP-2" value="" style="html=1;points=[[0,0,0,0,5],[0,1,0,0,-5],[1,0,0,0,5],[1,1,0,0,-5]];perimeter=orthogonalPerimeter;outlineConnect=0;targetShapes=umlLifeline;portConstraint=eastwest;newEdgeStyle={&quot;curved&quot;:0,&quot;rounded&quot;:0};" parent="qOsWm333N0dmwpUY4JiR-3" vertex="1">
          <mxGeometry x="45" y="200" width="10" height="50" as="geometry" />
        </mxCell>
        <mxCell id="qOsWm333N0dmwpUY4JiR-4" value="Third-party mailing system" style="shape=umlLifeline;perimeter=lifelinePerimeter;whiteSpace=wrap;html=1;container=1;dropTarget=0;collapsible=0;recursiveResize=0;outlineConnect=0;portConstraint=eastwest;newEdgeStyle={&quot;curved&quot;:0,&quot;rounded&quot;:0};" parent="1" vertex="1">
          <mxGeometry x="251.62" y="-383" width="100" height="903" as="geometry" />
        </mxCell>
        <mxCell id="Kvt9dq21il0mSc9CAYVP-13" value="" style="html=1;points=[[0,0,0,0,5],[0,1,0,0,-5],[1,0,0,0,5],[1,1,0,0,-5]];perimeter=orthogonalPerimeter;outlineConnect=0;targetShapes=umlLifeline;portConstraint=eastwest;newEdgeStyle={&quot;curved&quot;:0,&quot;rounded&quot;:0};" parent="qOsWm333N0dmwpUY4JiR-4" vertex="1">
          <mxGeometry x="45" y="653" width="10" height="220" as="geometry" />
        </mxCell>
        <mxCell id="qOsWm333N0dmwpUY4JiR-5" value="Enter website" style="html=1;verticalAlign=bottom;endArrow=block;curved=0;rounded=0;" parent="1" target="qOsWm333N0dmwpUY4JiR-6" edge="1">
          <mxGeometry width="80" relative="1" as="geometry">
            <mxPoint x="-293.38" y="-303" as="sourcePoint" />
            <mxPoint x="-108.38" y="-303" as="targetPoint" />
          </mxGeometry>
        </mxCell>
        <mxCell id="qOsWm333N0dmwpUY4JiR-7" value="Load website" style="html=1;verticalAlign=bottom;endArrow=open;dashed=1;endSize=8;curved=0;rounded=0;" parent="1" target="qOsWm333N0dmwpUY4JiR-17" edge="1">
          <mxGeometry relative="1" as="geometry">
            <mxPoint x="-103.38" y="-283" as="sourcePoint" />
            <mxPoint x="-288.38" y="-283" as="targetPoint" />
          </mxGeometry>
        </mxCell>
        <mxCell id="qOsWm333N0dmwpUY4JiR-9" value="Select and Click a Game" style="html=1;verticalAlign=bottom;endArrow=block;curved=0;rounded=0;" parent="1" target="qOsWm333N0dmwpUY4JiR-8" edge="1">
          <mxGeometry width="80" relative="1" as="geometry">
            <mxPoint x="-293.38" y="-223" as="sourcePoint" />
            <mxPoint x="-108.20999999999992" y="-223" as="targetPoint" />
          </mxGeometry>
        </mxCell>
        <mxCell id="qOsWm333N0dmwpUY4JiR-10" value="Open selected game popup" style="html=1;verticalAlign=bottom;endArrow=open;dashed=1;endSize=8;curved=0;rounded=0;" parent="1" target="qOsWm333N0dmwpUY4JiR-17" edge="1">
          <mxGeometry relative="1" as="geometry">
            <mxPoint x="-103.21000000000001" y="-203" as="sourcePoint" />
            <mxPoint x="-288.38" y="-203" as="targetPoint" />
          </mxGeometry>
        </mxCell>
        <mxCell id="qOsWm333N0dmwpUY4JiR-12" value="Select Social Media Icon" style="html=1;verticalAlign=bottom;endArrow=block;curved=0;rounded=0;" parent="1" target="qOsWm333N0dmwpUY4JiR-11" edge="1">
          <mxGeometry width="80" relative="1" as="geometry">
            <mxPoint x="-293.38" y="-83" as="sourcePoint" />
            <mxPoint x="-108.20999999999992" y="-83" as="targetPoint" />
          </mxGeometry>
        </mxCell>
        <mxCell id="qOsWm333N0dmwpUY4JiR-14" value="Request Redirection" style="html=1;verticalAlign=bottom;endArrow=block;curved=0;rounded=0;exitX=1;exitY=0;exitDx=0;exitDy=5;exitPerimeter=0;" parent="1" edge="1">
          <mxGeometry x="-0.0026" width="80" relative="1" as="geometry">
            <mxPoint x="-93.20999999999992" y="-73" as="sourcePoint" />
            <mxPoint x="96.62" y="-73" as="targetPoint" />
            <mxPoint as="offset" />
          </mxGeometry>
        </mxCell>
        <mxCell id="qOsWm333N0dmwpUY4JiR-16" value="Open new tab with redirection to Social media website clicked" style="html=1;verticalAlign=bottom;endArrow=open;dashed=1;endSize=8;curved=0;rounded=0;" parent="1" edge="1">
          <mxGeometry relative="1" as="geometry">
            <mxPoint x="96.78999999999996" y="-43" as="sourcePoint" />
            <mxPoint x="-293.38" y="-43" as="targetPoint" />
          </mxGeometry>
        </mxCell>
        <mxCell id="qOsWm333N0dmwpUY4JiR-19" value="Click &quot;Buy Game&quot; Button" style="html=1;verticalAlign=bottom;endArrow=block;curved=0;rounded=0;" parent="1" edge="1">
          <mxGeometry width="80" relative="1" as="geometry">
            <mxPoint x="-293.38" y="-183" as="sourcePoint" />
            <mxPoint x="-103.38" y="-183" as="targetPoint" />
          </mxGeometry>
        </mxCell>
        <mxCell id="Kvt9dq21il0mSc9CAYVP-1" value="Request redirection" style="html=1;verticalAlign=bottom;endArrow=block;curved=0;rounded=0;" parent="1" edge="1">
          <mxGeometry width="80" relative="1" as="geometry">
            <mxPoint x="-93.38" y="-173" as="sourcePoint" />
            <mxPoint x="96.62" y="-173" as="targetPoint" />
          </mxGeometry>
        </mxCell>
        <mxCell id="Kvt9dq21il0mSc9CAYVP-4" value="Open new tab with redirection to Game purchase website clicked" style="html=1;verticalAlign=bottom;endArrow=open;dashed=1;endSize=8;curved=0;rounded=0;" parent="1" edge="1">
          <mxGeometry relative="1" as="geometry">
            <mxPoint x="96.69999999999999" y="-143" as="sourcePoint" />
            <mxPoint x="-293.47" y="-143" as="targetPoint" />
          </mxGeometry>
        </mxCell>
        <mxCell id="Kvt9dq21il0mSc9CAYVP-7" value="Click mailing list button" style="html=1;verticalAlign=bottom;endArrow=block;curved=0;rounded=0;" parent="1" edge="1">
          <mxGeometry width="80" relative="1" as="geometry">
            <mxPoint x="-293.38" y="16" as="sourcePoint" />
            <mxPoint x="-103.38" y="16" as="targetPoint" />
          </mxGeometry>
        </mxCell>
        <mxCell id="Kvt9dq21il0mSc9CAYVP-8" value="Open enter-your-details popup&lt;br&gt;with unsubscribe button unavailable" style="html=1;verticalAlign=bottom;endArrow=open;dashed=1;endSize=8;curved=0;rounded=0;" parent="1" edge="1">
          <mxGeometry relative="1" as="geometry">
            <mxPoint x="-103.30000000000001" y="67" as="sourcePoint" />
            <mxPoint x="-293.47" y="67" as="targetPoint" />
          </mxGeometry>
        </mxCell>
        <mxCell id="Kvt9dq21il0mSc9CAYVP-10" value="Enter email" style="html=1;verticalAlign=bottom;endArrow=block;curved=0;rounded=0;" parent="1" edge="1">
          <mxGeometry width="80" relative="1" as="geometry">
            <mxPoint x="-293.38" y="96" as="sourcePoint" />
            <mxPoint x="-103.38" y="96" as="targetPoint" />
          </mxGeometry>
        </mxCell>
        <mxCell id="Kvt9dq21il0mSc9CAYVP-11" value="Click Sign Up button" style="html=1;verticalAlign=bottom;endArrow=block;curved=0;rounded=0;" parent="1" edge="1">
          <mxGeometry width="80" relative="1" as="geometry">
            <mxPoint x="-293.38" y="126" as="sourcePoint" />
            <mxPoint x="-103.38" y="126" as="targetPoint" />
          </mxGeometry>
        </mxCell>
        <mxCell id="Kvt9dq21il0mSc9CAYVP-12" value="Check details" style="html=1;verticalAlign=bottom;endArrow=block;curved=0;rounded=0;" parent="1" edge="1">
          <mxGeometry width="80" relative="1" as="geometry">
            <mxPoint x="-93.38" y="276" as="sourcePoint" />
            <mxPoint x="296.62" y="276" as="targetPoint" />
          </mxGeometry>
        </mxCell>
        <mxCell id="Kvt9dq21il0mSc9CAYVP-14" value="alt" style="shape=umlFrame;whiteSpace=wrap;html=1;pointerEvents=0;width=40;height=20;" parent="1" vertex="1">
          <mxGeometry x="-408.38" y="297" width="810" height="200" as="geometry" />
        </mxCell>
        <mxCell id="Kvt9dq21il0mSc9CAYVP-15" value="&lt;b&gt;[Valid email]&lt;/b&gt;" style="text;html=1;align=center;verticalAlign=middle;resizable=0;points=[];autosize=1;strokeColor=none;fillColor=none;" parent="1" vertex="1">
          <mxGeometry x="-408.38" y="397" width="90" height="30" as="geometry" />
        </mxCell>
        <mxCell id="Kvt9dq21il0mSc9CAYVP-16" value="&lt;b&gt;[Invalid email]&lt;/b&gt;" style="text;html=1;align=center;verticalAlign=middle;resizable=0;points=[];autosize=1;strokeColor=none;fillColor=none;" parent="1" vertex="1">
          <mxGeometry x="-408.38" y="317" width="100" height="30" as="geometry" />
        </mxCell>
        <mxCell id="Kvt9dq21il0mSc9CAYVP-17" value="" style="endArrow=none;dashed=1;html=1;rounded=0;exitX=-0.002;exitY=0.497;exitDx=0;exitDy=0;exitPerimeter=0;entryX=1.001;entryY=0.501;entryDx=0;entryDy=0;entryPerimeter=0;" parent="1" source="Kvt9dq21il0mSc9CAYVP-14" target="Kvt9dq21il0mSc9CAYVP-14" edge="1">
          <mxGeometry width="50" height="50" relative="1" as="geometry">
            <mxPoint x="221.62" y="277" as="sourcePoint" />
            <mxPoint x="271.62" y="227" as="targetPoint" />
          </mxGeometry>
        </mxCell>
        <mxCell id="Kvt9dq21il0mSc9CAYVP-18" value="Retry. Don&#39;t sign up/Unsubscribe." style="html=1;verticalAlign=bottom;endArrow=open;dashed=1;endSize=8;curved=0;rounded=0;" parent="1" edge="1">
          <mxGeometry relative="1" as="geometry">
            <mxPoint x="296.6199999999999" y="357" as="sourcePoint" />
            <mxPoint x="-293.38" y="357" as="targetPoint" />
          </mxGeometry>
        </mxCell>
        <mxCell id="Kvt9dq21il0mSc9CAYVP-19" value="Succeeded. Sign Up/unsubscribe and add/remove email to/from database (done via third-party)" style="html=1;verticalAlign=bottom;endArrow=open;dashed=1;endSize=8;curved=0;rounded=0;" parent="1" edge="1">
          <mxGeometry relative="1" as="geometry">
            <mxPoint x="296.62" y="447" as="sourcePoint" />
            <mxPoint x="-293.38" y="447" as="targetPoint" />
            <mxPoint as="offset" />
          </mxGeometry>
        </mxCell>
        <mxCell id="Kvt9dq21il0mSc9CAYVP-20" value="Visitor" style="text;html=1;align=center;verticalAlign=middle;resizable=0;points=[];autosize=1;strokeColor=none;fillColor=none;" parent="1" vertex="1">
          <mxGeometry x="-328.38" y="-413" width="60" height="30" as="geometry" />
        </mxCell>
        <mxCell id="Thh8EvpKqE1InhkDQbfS-1" value="alt" style="shape=umlFrame;whiteSpace=wrap;html=1;pointerEvents=0;width=40;height=20;" parent="1" vertex="1">
          <mxGeometry x="-408.38" y="27" width="340" height="233" as="geometry" />
        </mxCell>
        <mxCell id="Thh8EvpKqE1InhkDQbfS-2" value="" style="endArrow=none;dashed=1;html=1;rounded=0;exitX=-0.003;exitY=0.496;exitDx=0;exitDy=0;exitPerimeter=0;entryX=0.999;entryY=0.501;entryDx=0;entryDy=0;entryPerimeter=0;" parent="1" source="Thh8EvpKqE1InhkDQbfS-1" target="Thh8EvpKqE1InhkDQbfS-1" edge="1">
          <mxGeometry width="50" height="50" relative="1" as="geometry">
            <mxPoint x="-400.38" y="256" as="sourcePoint" />
            <mxPoint x="412.62" y="257" as="targetPoint" />
          </mxGeometry>
        </mxCell>
        <mxCell id="Thh8EvpKqE1InhkDQbfS-3" value="&lt;b&gt;[Not Subscribed]&lt;/b&gt;" style="text;html=1;align=center;verticalAlign=middle;resizable=0;points=[];autosize=1;strokeColor=none;fillColor=none;fontSize=9;" parent="1" vertex="1">
          <mxGeometry x="-408.38" y="47" width="100" height="20" as="geometry" />
        </mxCell>
        <mxCell id="Thh8EvpKqE1InhkDQbfS-5" value="&lt;b&gt;[Subscribed]&lt;/b&gt;" style="text;html=1;align=center;verticalAlign=middle;resizable=0;points=[];autosize=1;strokeColor=none;fillColor=none;fontSize=9;" parent="1" vertex="1">
          <mxGeometry x="-408.38" y="150" width="80" height="20" as="geometry" />
        </mxCell>
        <mxCell id="Thh8EvpKqE1InhkDQbfS-6" value="Open enter-your-details popup &lt;br&gt;with unsubscribe button available" style="html=1;verticalAlign=bottom;endArrow=open;dashed=1;endSize=8;curved=0;rounded=0;" parent="1" edge="1">
          <mxGeometry relative="1" as="geometry">
            <mxPoint x="-103.30000000000001" y="189" as="sourcePoint" />
            <mxPoint x="-293.47" y="189" as="targetPoint" />
          </mxGeometry>
        </mxCell>
        <mxCell id="Thh8EvpKqE1InhkDQbfS-7" value="Enter email" style="html=1;verticalAlign=bottom;endArrow=block;curved=0;rounded=0;" parent="1" edge="1">
          <mxGeometry width="80" relative="1" as="geometry">
            <mxPoint x="-293.38" y="218" as="sourcePoint" />
            <mxPoint x="-103.38" y="218" as="targetPoint" />
          </mxGeometry>
        </mxCell>
        <mxCell id="Thh8EvpKqE1InhkDQbfS-8" value="Click Unsubscribe button" style="html=1;verticalAlign=bottom;endArrow=block;curved=0;rounded=0;" parent="1" edge="1">
          <mxGeometry width="80" relative="1" as="geometry">
            <mxPoint x="-293.38" y="248" as="sourcePoint" />
            <mxPoint x="-103.38" y="248" as="targetPoint" />
          </mxGeometry>
        </mxCell>
        <mxCell id="E1MXkd7pemT1rtWASxul-1" value="&lt;font style=&quot;font-size: 50px;&quot; data-font-src=&quot;https://fonts.googleapis.com/css?family=Poppins&quot; face=&quot;Poppins&quot;&gt;&lt;u style=&quot;&quot;&gt;&lt;b style=&quot;&quot;&gt;Sequence Diagram&lt;/b&gt;&lt;/u&gt;&lt;/font&gt;" style="text;html=1;align=center;verticalAlign=middle;resizable=0;points=[];autosize=1;strokeColor=none;fillColor=none;horizontal=1;labelPosition=center;verticalLabelPosition=middle;labelBackgroundColor=none;labelBorderColor=none;textShadow=0;" vertex="1" parent="1">
          <mxGeometry x="-268.38" y="-510" width="510" height="70" as="geometry" />
        </mxCell>
      </root>
    </mxGraphModel>
  </diagram>
</mxfile>
